<svg xmlns="http://www.w3.org/2000/svg" version="1.1" xmlns:xlink="http://www.w3.org/1999/xlink" xmlns:svgjs="http://svgjs.com/svgjs" width="1600" height="900" preserveAspectRatio="none" viewBox="0 0 1600 900">
    <g mask="url(&quot;#SvgjsMask1290&quot;)" fill="none">
        <g mask="url(&quot;#SvgjsMask1291&quot;)">
            <path d="M1498 518L1470 490L1442 490L1414 490L1386 490M1554 462L1526 462M1582 462L1554 490L1526 518M1638 462L1610 462L1582 462L1554 462L1526 490L1498 518L1470 518" stroke="rgba(255, 255, 255, 1)" stroke-width="4.67"></path>
            <path d="M1463 518 a7 7 0 1 0 14 0 a7 7 0 1 0 -14 0zM1379 490 a7 7 0 1 0 14 0 a7 7 0 1 0 -14 0zM1519 462 a7 7 0 1 0 14 0 a7 7 0 1 0 -14 0zM1519 518 a7 7 0 1 0 14 0 a7 7 0 1 0 -14 0z" fill="rgba(255, 255, 255, 1)"></path>
            <path d="M1358 406L1330 378M1386 406L1358 434L1330 434L1302 434L1274 434M1414 406L1386 434L1358 462L1330 462M1498 434L1470 462L1442 462M1638 434L1610 434L1582 434L1554 434L1526 434L1498 434L1470 434L1442 406L1414 406L1386 406L1358 406L1330 406L1302 406L1274 406L1246 406L1218 406L1190 406" stroke="rgba(254, 189, 1, 1)" stroke-width="4.67"></path>
            <path d="M1183 406 a7 7 0 1 0 14 0 a7 7 0 1 0 -14 0zM1323 378 a7 7 0 1 0 14 0 a7 7 0 1 0 -14 0zM1267 434 a7 7 0 1 0 14 0 a7 7 0 1 0 -14 0zM1323 462 a7 7 0 1 0 14 0 a7 7 0 1 0 -14 0zM1435 462 a7 7 0 1 0 14 0 a7 7 0 1 0 -14 0z" fill="rgba(254, 189, 1, 1)"></path>
            <path d="M1638 490L1610 518" stroke="rgba(255, 255, 255, 1)" stroke-width="4.67"></path>
            <path d="M1603 518 a7 7 0 1 0 14 0 a7 7 0 1 0 -14 0z" fill="rgba(255, 255, 255, 1)"></path>
            <path d="M1638 406L1610 406L1582 406L1554 406L1526 406L1498 406L1470 406L1442 378" stroke="rgba(255, 255, 255, 1)" stroke-width="4.67"></path>
            <path d="M1435 378 a7 7 0 1 0 14 0 a7 7 0 1 0 -14 0z" fill="rgba(255, 255, 255, 1)"></path>
            <path d="M1386 322L1358 350M1442 350L1414 350L1386 350L1358 378M1638 378L1610 378L1582 378L1554 378L1526 378L1498 378L1470 378L1442 350L1414 322L1386 322L1358 322" stroke="rgba(255, 255, 255, 1)" stroke-width="4.67"></path>
            <path d="M1351 322 a7 7 0 1 0 14 0 a7 7 0 1 0 -14 0zM1351 350 a7 7 0 1 0 14 0 a7 7 0 1 0 -14 0zM1351 378 a7 7 0 1 0 14 0 a7 7 0 1 0 -14 0z" fill="rgba(255, 255, 255, 1)"></path>
            <path d="M1330 546L1302 574L1274 574M1414 546L1386 518M1274 546L1246 518L1218 518M1638 546L1610 546L1582 546L1554 546L1526 546L1498 546L1470 546L1442 546L1414 546L1386 546L1358 546L1330 546L1302 546L1274 546L1246 546" stroke="rgba(255, 255, 255, 1)" stroke-width="4.67"></path>
            <path d="M1239 546 a7 7 0 1 0 14 0 a7 7 0 1 0 -14 0zM1267 574 a7 7 0 1 0 14 0 a7 7 0 1 0 -14 0zM1379 518 a7 7 0 1 0 14 0 a7 7 0 1 0 -14 0zM1211 518 a7 7 0 1 0 14 0 a7 7 0 1 0 -14 0z" fill="rgba(255, 255, 255, 1)"></path>
            <path d="M1330 294L1302 322L1274 322L1246 322M1610 350L1582 322M1638 350L1610 350L1582 350L1554 350L1526 350L1498 350L1470 350L1442 322L1414 294L1386 294L1358 294L1330 294L1302 294L1274 294" stroke="rgba(254, 189, 1, 1)" stroke-width="4.67"></path>
            <path d="M1267 294 a7 7 0 1 0 14 0 a7 7 0 1 0 -14 0zM1239 322 a7 7 0 1 0 14 0 a7 7 0 1 0 -14 0zM1575 322 a7 7 0 1 0 14 0 a7 7 0 1 0 -14 0z" fill="rgba(254, 189, 1, 1)"></path>
            <path d="M1638 574L1610 574" stroke="rgba(254, 189, 1, 1)" stroke-width="4.67"></path>
            <path d="M1603 574 a7 7 0 1 0 14 0 a7 7 0 1 0 -14 0z" fill="rgba(254, 189, 1, 1)"></path>
            <path d="M1526 602L1498 574M1498 602L1470 602L1442 602M1554 602L1526 574M1638 602L1610 602L1582 602L1554 602L1526 602L1498 602L1470 574L1442 574L1414 574" stroke="rgba(254, 189, 1, 1)" stroke-width="4.67"></path>
            <path d="M1407 574 a7 7 0 1 0 14 0 a7 7 0 1 0 -14 0zM1491 574 a7 7 0 1 0 14 0 a7 7 0 1 0 -14 0zM1435 602 a7 7 0 1 0 14 0 a7 7 0 1 0 -14 0zM1519 574 a7 7 0 1 0 14 0 a7 7 0 1 0 -14 0z" fill="rgba(254, 189, 1, 1)"></path>
            <path d="M1106 266L1078 294L1050 294L1022 294M1498 322L1470 294M1218 266L1190 294L1162 294M1246 266L1218 294M1582 294L1554 294M1638 294L1610 294L1582 294L1554 322L1526 322L1498 322L1470 322L1442 294L1414 266L1386 266L1358 266L1330 266L1302 266L1274 266L1246 266L1218 266L1190 266L1162 266L1134 266L1106 266L1078 266L1050 266L1022 266L994 266" stroke="rgba(254, 189, 1, 1)" stroke-width="4.67"></path>
            <path d="M987 266 a7 7 0 1 0 14 0 a7 7 0 1 0 -14 0zM1015 294 a7 7 0 1 0 14 0 a7 7 0 1 0 -14 0zM1463 294 a7 7 0 1 0 14 0 a7 7 0 1 0 -14 0zM1155 294 a7 7 0 1 0 14 0 a7 7 0 1 0 -14 0zM1211 294 a7 7 0 1 0 14 0 a7 7 0 1 0 -14 0zM1547 294 a7 7 0 1 0 14 0 a7 7 0 1 0 -14 0z" fill="rgba(254, 189, 1, 1)"></path>
            <path d="M910 630L882 630M1386 630L1358 602L1330 602L1302 602M1190 630L1162 602M1106 630L1078 602L1050 602L1022 602M1274 630L1246 602L1218 602L1190 602L1162 574L1134 574L1106 574L1078 574L1050 574M938 630L910 602L882 574M994 630L966 602L938 574L910 574M1638 630L1610 630L1582 630L1554 630L1526 630L1498 630L1470 630L1442 630L1414 630L1386 630L1358 630L1330 630L1302 630L1274 630L1246 630L1218 630L1190 630L1162 630L1134 630L1106 630L1078 630L1050 630L1022 630L994 630L966 630L938 630L910 630L882 602" stroke="rgba(255, 255, 255, 1)" stroke-width="4.67"></path>
            <path d="M875 602 a7 7 0 1 0 14 0 a7 7 0 1 0 -14 0zM875 630 a7 7 0 1 0 14 0 a7 7 0 1 0 -14 0zM1295 602 a7 7 0 1 0 14 0 a7 7 0 1 0 -14 0zM1155 602 a7 7 0 1 0 14 0 a7 7 0 1 0 -14 0zM1015 602 a7 7 0 1 0 14 0 a7 7 0 1 0 -14 0zM1043 574 a7 7 0 1 0 14 0 a7 7 0 1 0 -14 0zM875 574 a7 7 0 1 0 14 0 a7 7 0 1 0 -14 0zM903 574 a7 7 0 1 0 14 0 a7 7 0 1 0 -14 0z" fill="rgba(255, 255, 255, 1)"></path>
            <path d="M1134 238L1106 210L1078 210L1050 210L1022 210L994 210L966 210M1274 238L1246 210M1218 238L1190 210L1162 210L1134 210L1106 182M1330 238L1302 210L1274 210L1246 182L1218 182L1190 182L1162 182M1386 238L1358 210L1330 182L1302 182L1274 182L1246 154L1218 154L1190 154L1162 154L1134 154M1414 238L1386 210L1358 182L1330 154M1638 266L1610 266L1582 266L1554 266L1526 266L1498 266L1470 266L1442 266L1414 238L1386 238L1358 238L1330 238L1302 238L1274 238L1246 238L1218 238L1190 238L1162 238L1134 238L1106 238L1078 238L1050 238L1022 238L994 238L966 266" stroke="rgba(254, 189, 1, 1)" stroke-width="4.67"></path>
            <path d="M959 266 a7 7 0 1 0 14 0 a7 7 0 1 0 -14 0zM959 210 a7 7 0 1 0 14 0 a7 7 0 1 0 -14 0zM1239 210 a7 7 0 1 0 14 0 a7 7 0 1 0 -14 0zM1099 182 a7 7 0 1 0 14 0 a7 7 0 1 0 -14 0zM1155 182 a7 7 0 1 0 14 0 a7 7 0 1 0 -14 0zM1127 154 a7 7 0 1 0 14 0 a7 7 0 1 0 -14 0zM1323 154 a7 7 0 1 0 14 0 a7 7 0 1 0 -14 0z" fill="rgba(254, 189, 1, 1)"></path>
            <path d="M1470 658L1442 686L1414 686L1386 686L1358 686M1190 658L1162 686L1134 686M1106 658L1078 686L1050 686L1022 686L994 686M1330 658L1302 686L1274 686M1554 658L1526 686L1498 686M1218 658L1190 686L1162 714L1134 742L1106 742L1078 742L1050 742M1638 658L1610 658L1582 658L1554 658L1526 658L1498 658L1470 658L1442 658L1414 658L1386 658L1358 658L1330 658L1302 658L1274 658L1246 658L1218 658L1190 658L1162 658L1134 658L1106 658L1078 658L1050 658L1022 658L994 658L966 658L938 658" stroke="rgba(254, 189, 1, 1)" stroke-width="4.67"></path>
            <path d="M931 658 a7 7 0 1 0 14 0 a7 7 0 1 0 -14 0zM1351 686 a7 7 0 1 0 14 0 a7 7 0 1 0 -14 0zM1127 686 a7 7 0 1 0 14 0 a7 7 0 1 0 -14 0zM987 686 a7 7 0 1 0 14 0 a7 7 0 1 0 -14 0zM1267 686 a7 7 0 1 0 14 0 a7 7 0 1 0 -14 0zM1491 686 a7 7 0 1 0 14 0 a7 7 0 1 0 -14 0zM1043 742 a7 7 0 1 0 14 0 a7 7 0 1 0 -14 0z" fill="rgba(254, 189, 1, 1)"></path>
            <path d="M1582 238L1554 210L1526 210M1610 238L1582 210L1554 182M1638 238L1610 238L1582 238L1554 238L1526 238" stroke="rgba(254, 189, 1, 1)" stroke-width="4.67"></path>
            <path d="M1519 238 a7 7 0 1 0 14 0 a7 7 0 1 0 -14 0zM1519 210 a7 7 0 1 0 14 0 a7 7 0 1 0 -14 0zM1547 182 a7 7 0 1 0 14 0 a7 7 0 1 0 -14 0z" fill="rgba(254, 189, 1, 1)"></path>
        </g>
    </g>
    <defs>
        <mask id="SvgjsMask1290">
            <rect width="1600" height="900" fill="#ffffff"></rect>
        </mask>
        <mask id="SvgjsMask1291">
            <rect width="1600" height="900" fill="white"></rect>
            <path d="M1466.5 518 a3.5 3.5 0 1 0 7 0 a3.5 3.5 0 1 0 -7 0zM1382.5 490 a3.5 3.5 0 1 0 7 0 a3.5 3.5 0 1 0 -7 0zM1522.5 462 a3.5 3.5 0 1 0 7 0 a3.5 3.5 0 1 0 -7 0zM1522.5 518 a3.5 3.5 0 1 0 7 0 a3.5 3.5 0 1 0 -7 0z" fill="black"></path>
            <path d="M1186.5 406 a3.5 3.5 0 1 0 7 0 a3.5 3.5 0 1 0 -7 0zM1326.5 378 a3.5 3.5 0 1 0 7 0 a3.5 3.5 0 1 0 -7 0zM1270.5 434 a3.5 3.5 0 1 0 7 0 a3.5 3.5 0 1 0 -7 0zM1326.5 462 a3.5 3.5 0 1 0 7 0 a3.5 3.5 0 1 0 -7 0zM1438.5 462 a3.5 3.5 0 1 0 7 0 a3.5 3.5 0 1 0 -7 0z" fill="black"></path>
            <path d="M1606.5 518 a3.5 3.5 0 1 0 7 0 a3.5 3.5 0 1 0 -7 0z" fill="black"></path>
            <path d="M1438.5 378 a3.5 3.5 0 1 0 7 0 a3.5 3.5 0 1 0 -7 0z" fill="black"></path>
            <path d="M1354.5 322 a3.5 3.5 0 1 0 7 0 a3.5 3.5 0 1 0 -7 0zM1354.5 350 a3.5 3.5 0 1 0 7 0 a3.5 3.5 0 1 0 -7 0zM1354.5 378 a3.5 3.5 0 1 0 7 0 a3.5 3.5 0 1 0 -7 0z" fill="black"></path>
            <path d="M1242.5 546 a3.5 3.5 0 1 0 7 0 a3.5 3.5 0 1 0 -7 0zM1270.5 574 a3.5 3.5 0 1 0 7 0 a3.5 3.5 0 1 0 -7 0zM1382.5 518 a3.5 3.5 0 1 0 7 0 a3.5 3.5 0 1 0 -7 0zM1214.5 518 a3.5 3.5 0 1 0 7 0 a3.5 3.5 0 1 0 -7 0z" fill="black"></path>
            <path d="M1270.5 294 a3.5 3.5 0 1 0 7 0 a3.5 3.5 0 1 0 -7 0zM1242.5 322 a3.5 3.5 0 1 0 7 0 a3.5 3.5 0 1 0 -7 0zM1578.5 322 a3.5 3.5 0 1 0 7 0 a3.5 3.5 0 1 0 -7 0z" fill="black"></path>
            <path d="M1606.5 574 a3.5 3.5 0 1 0 7 0 a3.5 3.5 0 1 0 -7 0z" fill="black"></path>
            <path d="M1410.5 574 a3.5 3.5 0 1 0 7 0 a3.5 3.5 0 1 0 -7 0zM1494.5 574 a3.5 3.5 0 1 0 7 0 a3.5 3.5 0 1 0 -7 0zM1438.5 602 a3.5 3.5 0 1 0 7 0 a3.5 3.5 0 1 0 -7 0zM1522.5 574 a3.5 3.5 0 1 0 7 0 a3.5 3.5 0 1 0 -7 0z" fill="black"></path>
            <path d="M990.5 266 a3.5 3.5 0 1 0 7 0 a3.5 3.5 0 1 0 -7 0zM1018.5 294 a3.5 3.5 0 1 0 7 0 a3.5 3.5 0 1 0 -7 0zM1466.5 294 a3.5 3.5 0 1 0 7 0 a3.5 3.5 0 1 0 -7 0zM1158.5 294 a3.5 3.5 0 1 0 7 0 a3.5 3.5 0 1 0 -7 0zM1214.5 294 a3.5 3.5 0 1 0 7 0 a3.5 3.5 0 1 0 -7 0zM1550.5 294 a3.5 3.5 0 1 0 7 0 a3.5 3.5 0 1 0 -7 0z" fill="black"></path>
            <path d="M878.5 602 a3.5 3.5 0 1 0 7 0 a3.5 3.5 0 1 0 -7 0zM878.5 630 a3.5 3.5 0 1 0 7 0 a3.5 3.5 0 1 0 -7 0zM1298.5 602 a3.5 3.5 0 1 0 7 0 a3.5 3.5 0 1 0 -7 0zM1158.5 602 a3.5 3.5 0 1 0 7 0 a3.5 3.5 0 1 0 -7 0zM1018.5 602 a3.5 3.5 0 1 0 7 0 a3.5 3.5 0 1 0 -7 0zM1046.5 574 a3.5 3.5 0 1 0 7 0 a3.5 3.5 0 1 0 -7 0zM878.5 574 a3.5 3.5 0 1 0 7 0 a3.5 3.5 0 1 0 -7 0zM906.5 574 a3.5 3.5 0 1 0 7 0 a3.5 3.5 0 1 0 -7 0z" fill="black"></path>
            <path d="M962.5 266 a3.5 3.5 0 1 0 7 0 a3.5 3.5 0 1 0 -7 0zM962.5 210 a3.5 3.5 0 1 0 7 0 a3.5 3.5 0 1 0 -7 0zM1242.5 210 a3.5 3.5 0 1 0 7 0 a3.5 3.5 0 1 0 -7 0zM1102.5 182 a3.5 3.5 0 1 0 7 0 a3.5 3.5 0 1 0 -7 0zM1158.5 182 a3.5 3.5 0 1 0 7 0 a3.5 3.5 0 1 0 -7 0zM1130.5 154 a3.5 3.5 0 1 0 7 0 a3.5 3.5 0 1 0 -7 0zM1326.5 154 a3.5 3.5 0 1 0 7 0 a3.5 3.5 0 1 0 -7 0z" fill="black"></path>
            <path d="M934.5 658 a3.5 3.5 0 1 0 7 0 a3.5 3.5 0 1 0 -7 0zM1354.5 686 a3.5 3.5 0 1 0 7 0 a3.5 3.5 0 1 0 -7 0zM1130.5 686 a3.5 3.5 0 1 0 7 0 a3.5 3.5 0 1 0 -7 0zM990.5 686 a3.5 3.5 0 1 0 7 0 a3.5 3.5 0 1 0 -7 0zM1270.5 686 a3.5 3.5 0 1 0 7 0 a3.5 3.5 0 1 0 -7 0zM1494.5 686 a3.5 3.5 0 1 0 7 0 a3.5 3.5 0 1 0 -7 0zM1046.5 742 a3.5 3.5 0 1 0 7 0 a3.5 3.5 0 1 0 -7 0z" fill="black"></path>
            <path d="M1522.5 238 a3.5 3.5 0 1 0 7 0 a3.5 3.5 0 1 0 -7 0zM1522.5 210 a3.5 3.5 0 1 0 7 0 a3.5 3.5 0 1 0 -7 0zM1550.5 182 a3.5 3.5 0 1 0 7 0 a3.5 3.5 0 1 0 -7 0z" fill="black"></path>
        </mask>
    </defs>
</svg>